<mxfile host="app.diagrams.net" modified="2022-02-21T05:09:28.459Z" agent="5.0 (Windows NT 10.0; Win64; x64) AppleWebKit/537.36 (KHTML, like Gecko) Chrome/98.0.4758.102 Safari/537.36" etag="snj8pPGRrrFoyZdgumST" version="16.6.1" type="github">
  <diagram id="F_U6pM1qq8SpCUaOEMC0" name="Page-1">
    <mxGraphModel dx="1209" dy="634" grid="1" gridSize="10" guides="1" tooltips="1" connect="1" arrows="1" fold="1" page="1" pageScale="1" pageWidth="827" pageHeight="1169" math="0" shadow="0">
      <root>
        <mxCell id="0" />
        <mxCell id="1" parent="0" />
        <mxCell id="gUDkAE20RX9uTa4XjMVf-51" value="" style="shape=image;verticalLabelPosition=bottom;labelBackgroundColor=default;verticalAlign=top;aspect=fixed;imageAspect=0;image=data:image/png,iVBORw0KGgoAAAANSUhEUgAABOMAAABaCAYAAAD6kpJzAAAgAElEQVR4nOydeVyU1frAvwIzMs0wsgwwyoBsIgIJGli4ZJALJpq5ZHpT29B+ppktWtey1Lw3upVa6tWwRS3NNPOm5ZJBZWq5JJqiIQoJGiqb4xAjA/T7YwaYgQEZVq3z/Xz8fOR9z3vmeZdzznOe85znaefj4/MnAoFAIBAIBAKBQCAQCAQCgaDFsWtrAQQCgUAgEAgEAoFAIBAIBIK/C8IYJxAIBAKBQCAQCAQCgUAgELQSwhgnEAgEAoFAIBAIBAKBQCAQtBIObS2AQCD4a3C36o+2FkHQRnyTd0tbiyAQCAQCgUAgEAgENw3CM04gEAgEAoFAIBAIBAKBQCBoJYQxTiAQCAQCgUAgEAgEAoFAIGglhDFOIBAIBAKBQCAQCAQCgUAgaCWEMU4gEAgEAoFAIBAIBAKBQCBoJYQxTiAQCAQCgUAgEAgEAoFAIGglhDFOIBC0AF0Z9d/lzPn0TR6d5NZivzHi7Tdb+DcETUE+cA4fr/k3I4PbWhKBoBnxiaXT2reJ+ORlVDGStpZGUBO/RMZ9mcXcrw8yMM67raURCP7SSJ9+me4b3ybktUHYt7UwAoFAcJPh0OCSPZdxR3wAudviyPq5BSVqEAn4zh2F2vzQ2c/48aOkthJIIBCYc2dvfN0AZKhDo4AdLfIbAWoZAOo7hhC4+iMymv9XBI1EPnAW7zzRB5fyM7i2tTCCZmIQmo3xqK4eIu2RNZS2tThtRUw4Ho4Abrj08iMvJb2tJboOChyCZ+N7TxSuCrCrgJKcg2RseoliXVvL1gIMuY0uMgB3uvWL4+sd1nTDRCYkj8XP/FDGBuZPnt0qIgpufhT/eZtAXy0577xI3vdtLU1bEYQyzA07QBoQioxd3PBdivM4PEeMwlujwMEOynTnyN62iIvpJ9taMoFA8Dek4ca4vwnS2a8SEqmsu0DWNlKf29Wk33B8eg6dIx3IXzHvbzyANwbTRBAo3PUivyVpq09FjiNwdjQKIG/bk+SsbisZBQB8v4+scVEEu5WQe+Jgi/3GmdFhhKoh98ftrW+I6z6Ah6YNwyt/OwtfaIix0ZtR/32BYDeAbA498292ZrewjM2A74MzuHeQP7pvZvBeQ9uVfCQvTr4LNWfYPGc6q061qIg3PLLYDwns1Z5La8Zx8UJbShKO2/IxqO3SOf34X9iY1j2WTtOH4pa/k1+eb9p4bZWUo1wa4IeHJJ/CA5nNX39zE7KA8NHdqPLhswOZTxShD87myIpEDG0pW71YMZiZUbR/IW/PsWJo236Y00MD6SK9zMk9LbAQJGg8zgl0Hj8M94KtHPqkbRfQ/x66eEv3+eloj+dTEe1G2ZkTlDR7/c2M3Tg6T55ER8fqQw4KH/zun035iofIy2s70eomgSGfzyGqA6D7mbXDR2Ix6kzdzdzRgWRu8mXt8jYSsQ2wNl+vKDfwR24a+Tu3Ubj9YtXx6xvOlXR451X85DUWGvvG03H8Hbi6KpHYm+rP2kPO+1vQm6/BTZpJRHyNkarcQEnBaX5ftxrtDyUNKJtJ/v5d5K290Rf3Wha/lw9yXzScfDOK7V9bK2HWHuolg62xAzjS/CI2OzepMS6JrPlJZAFWveRucBw6eiKTaK9fUFAnHYLuAKonWdK7Q1G0nTiCWvzKZ/83tcV/Y8uTz7ClhX+lTpy9cXOWQFEDy9/WH40bFGWdReHrT+A9SnauvPH7AblXRxSOEhtWu+U8sGAi4fJSzny+/G9viAOQdFIjl94I/gKeyNyVSK62tRwtjLMGubME+4a2TVs5l8yFCcm0qV3VBpTduyGhlLxvF5HxfQo4P4Hv5GGoPSJw9YCLl9pawmYmczbrh17Pw202a2Mry9Rv9BM0I7f4oFBJcbgBhr6/hy7e8n1+6VvzONZy1TcvYX3xdISynBR++SiRa2UROI+fT7C/Gs+IPuTt3tvWEtaPoicxT/Umc/G+tpbkhsTOXoLCKxzFI+Goeq3n7Lz9lAN/ll5vyUmNRG55xH7sNAJHByGrWX9ALMGv+JHxyiJ09dnN7CXI3EPwnzGHHMk88lLqkcFegsw9CM3wIDxvSyZ9zhYMxdcR+S+Ks5c7CulfvV+25CY1xrUcpYkvklr5h8l6XXxoKacT/96W6huCO9XIgMLzOXTwDUUh34WuGCAIZVcluvR02gUFtbGQAoF1QgeEoSCX1KSDuL/ij1foAFRs5oZciG0Ktz/FsGApXNjJ8iSx7UMgaHMcALK59H2K8e+iZRRcGIba/xrlN4N7pNg+KhAImgMHY7D0S6mJXCsFSKUoLRv8Aygvu9GtH5fJu+yOJjoB1eJ9fz3dsVGYe7tJaBccgnxMPJ27eyIPG03HCSfIWavFoDV6ptldL6ihvoRyAJ9BdLw3CBkGrhzaQs6qPRjyJbTrdQduD41A4+6H/9R4fnlqG3+aXW5hL+jRD1XCCDTuSjrdE0NeiqWXvsUuroAgZIOH4hPjh8wrFt+paZz+j7A7WCeJ7fclsb3q70pPuZvHE64mjTDG1Yw9Uoo2YyenP12GoaJGUfUTeA+PwdPDuC+/oqwU3dmdnNm8zNQJmmEXgfyuqXTu5YNSajxk0J4jZ8dyLp5K5cbEuG1Sdmgpp/cG0WlSDCpnCXaAoSiN35a8h+640RJe251WiWb622immx2qEYfH6FabScaYpZTcNw7NveF0kEuwKy+h8MgWchKNFv8q5J7IpozHK9IPhWk/iuFqDhe3ribv84vURoL9faPpdE8kzs4S7IEKQz55Keu5kFSjE7ChbuO9YuwgK+LNnouB4jM7yVqwq4bFX4Y0YRKaPl1QyCufXzrZq9+zdO01UX4yjSteg3AeLUG32gCD+qFyyuH3zVo8gkDmEQSkV8ntOOk+OkV2QeFkrLvCoEV35kdyFm+jNL+m3PlkPLSO8mmT6NxDg6M9VJSXcOXAOn5762itZ9LQugFwC0L53Dg0vm5IrQ0INbdAh0Xj9vAg1F5uJvfoEq4c2ULO0v2UWzw/0/bdrG2kvnIUmbnsxTlc2PweeV/UFAaQj2Tee48RJS9k79uTWfh1/YpI1BMrmTPUG05v5oUZq7BqZpn0LHOG+lscyv1yqvXtjZOeZc5QFRlL53E8aDIDYroav61yA7rTW/lf4m6yzEQKnf0aI26zvoVcf3gJbyb+Wuu4os9wRo/vj5e7aW3LkE9uykdsWPWrVU8vx9DeDH1kCIGd3HCwN8mS9Q273/iCE/kAcTz66XBLT1zf4cz5dPh17rkrYUFKuHyEE6f3EXh+LF6+YdzuvZkvrWxVVfQZzthJd6N2th4c3rJ+GaGPPcxdfbriLDeWLyv6ldTV77Jzr3n76crY92YQmP8Fb67Wcu9jowj0Mj2X4mxOrV/MZ7tM5a28R/XQ5cwZan7kLD/d/wa7a8j2wNgoXCjm6OdLrH8jTcF5HB7xw/HycaG9A2Aaf2qPKQocgmfiExuFSiU1ts1SHQWpn5G1az1lZmNV+7hN9Oh1kbRXkygfNJXAnj7IHKCiTEfBj6vJSN5aSwwHn5l0jOtTPbaV6ig4vpXfvlpdNQ4a6zX311Xg99gOS++booMcefslrjX6gbjhOHUMnXqZ9Z1Xc7i8eyOX1lVuZAlC9f40NE5mlzlFErIx0qKm2otOpn452qx/K7/O6rKNfQq3T2XlrHi8r7edWe6HYtoI1OGV44+B0qJMft+4nsJdlX1bdRiDKnzjidgYb1GVhQJ850S6TI+EQ0s5vQqUz43D29fY35YXpfNb0kq0B6rvufY4Xve2F5vHE4C+xvHSzTQe16SxIRgMRTrAG1VkN7SHToJmAd6+UJFzlCKr3oOhqJ96neGxoahNn3BZQQZfL5/BweQT1cXi1vHkrN44k83X0/qxP636lGLqbqaODsSxYB/vPzSeHLMO1yF2CcMfiyFYrTQqoaVaTu94g42L11Bm++1VoV54jMnRlu/n4L+717HVxXZaSu5GIY3BOX4S3kFq5FKgMg7glkSKi2qMbg3VxXsu4454TzJXJVCkeZWA2ACjPl5RijbtM9K3rLboOwHwmITnoDg0vi5IqupOIXPbIkqqxLCyg8V/FHfMHWVRVVNjUtsPGoHHiGhU7jKTPqvlyslkLryVXKVzNkYXB2ptVwMD5RYKeG0apDNV0uC+s6X6fFv1SCv9bZ1hfBo+V6q+TRv15YZScJUSQBX2BDk/L6PMbjCevQOgIpdLh+qYa0bMIWb6WKJ9lCa9UEvOgQ1s/vdCqptaDD3eXcGwwPboUpfy1tNvVF+vSGDIh3OIcr1G5qbHWbs8xca6K7nCkf16Bg7vTcwEbzaurS/OSSjqKXMYOPA2vF3bG/ur8mvkndtHyjtzOZlqunbgOp58oTeFmx7mSNcljLxVCSUZbH3uYS4/sJmJfd1xKMkmZXE/9pj3o4p76fbMdGKiA1GZ5uy6c/vYvnh2dd2tjoE/Tx1FtyCN07NfJjhSiSp6ML+v3Wg6r0TqU9e1SuwlQP4VygHJ6GhUEtAfX09m4qHq+g/sIe8ESJPG4OF1G87dt1FYl1vokT3kbfTDbWokMjc1Uqh7m/iZdEqWp5NRPJPgeD/kPQYhJ53GmYcb+O4rUdxLtxeeZcht3iikVqq7so937xtPrnn5Br17o8e5y/6FLP8mjDFT4+ji2h6AsoITfPHq4xw3la89diuJeiGLqBfqkcNGHGITGfiPIdzqo8TR1KfoCzI4uPkdUtb9z0r5JYyZGodf5TOsQXNuC7c5m6r8jiR63h+FSmG62E6KMmgY3UeOsyjn0HMZt00ehpfaOPgD2DkYy/Z4ahlK8zmK3WA8p77GrX2rDXEAEqUPfve/RmjcYNvvrBWRd3uUrjMG4WEaXAAkziEEPj0Oa9+1bUi45bl/Ejo+EhfTwIu9DJfIcXSeoTETIgTV4jl0ja42lgFInDRoxs+hy+yQWvVKZ79M6PhoC8XfTuKGx6CJqO40v0Fb6zadj55JiMVzkSAPiCfon/3MSimRL3iF4EEhKOXmzy8I/xmvoplgxfii30l+FriGxQDgeHsQ0vNpaCu9Ws2+aum06QTHhKB0qq7bTqJEGTyI4FdGWJnwaPBaNouukZqqxmpnL8MleiKaSZay2FS3PATVa9PwD6hDsajJnSPw++c4vH3cTIqfSY7IcYQuruO7slOjenOOpexyDZoJ03CJtFJ+fAxRSsDehT7xo6wUMOcu4vt5IwWkXWIYeXsD7qFBKNE8/CojBnWt/rbsJSiCRzJqWtcm1awaNZUpM+KqDXEAEjfUg2bwxL8HWCqRgGPMw0x5+UGCvU2GuEpZAuKIe6xpsnBnbzROoMvYRxYGfjhxFlDje0/t79sx5mEenRFXpyHOEiV95r/KiEFhVYY4AAfnrkTOeI1HH7TSfrwG8sQ/H6w2xAHIvQme9AQDmpx48AGi/KVQksHBL5taVw00CwidNgl/f5MhDqrGn8DYGLOCCtrHJdHz/j54mAxxxqIKVL0m0XPqAtrXGvm86fzkfG7tZTTEAdg5KFD1TcC3Zw3tLWQR4Q8NthzbpApUPcfhFdGsd3wdJMgX/tPYB5n3nU4aOt03oonb9t1QvGbql837N3tJ/UqDTX0K3BUXg7cMkAUQc19UHaU0uPxnJoGR5uOPBKlzEJ0fGNoMYyzgeAeaxcb+ubK/tXcOwv+pKcjl9V9aPw0fT4iZSBfTeNncGQlLvt1LXoUUj7i5+D+wnh4PRSEvSOXEp4usGJF6023JeiYPrzbEATi4BjLkxc2Mm9K7+uCO8axLvgx4M/DFD6r71JBE7hseiCOX2fOmpSHOccKXPPnivYRVGrQApEq6DJ/P0/9NxCyU0w3FDSW3IgHfp2YTHGYyxEFVHMBb45ugixsrR31/EuFxAdX6uJ0UZdg4ug6KsSyqmk3w5HH4+RsNcdV1D8a/b42yLc3oaQQnxOJpMsSBUR9z6T4Cz9FNq9p+klGX9XRXVvUPIMG+3oZqo87UoL6zJft8E7bqkTbQ4LmSrfqyLWStJjsHHHyH0XXiMoKfnomfcyG/fZpIgbUV2oErmPxaAv38lGZ6oRJNdAJPfrjOzMCcwpGn13CyFBQRCYyZUKlMeaN5YTpRrqBPW2NpiGtw3dXoV6VwsrQ93e5+tv4+Z+oSJo/tbWlIsG+Pyi+GMfOX4FfjY3Hp+zrDbzWNSbJAometY3xfd+O1Mm/63TvHrHQC/d59nTH9q40xAAqf3ox560sGDqxPsNbAQOn6Q1wBcPdDLofS3BoOCZHjCNz4Np2nVI7DrkiqHqiSW/zcgHwufn6IWhTvIe+4FnBD3uM6oshN43m5wcKDri7KV+8hTw9I1Mgb24Xa9O5j6PHW64yJrsMQVwvb373zrdN58sV7qwxxAA6uoYx8ObEVQ4wlMu7FsUT5VRviABxdA+n32OsMG11j8hO3jqkmmVtjC6nNv+GkcsFw4SAntyRxNa8AO//ZdBsfhVPIYFwd11OgBxwT0AwKMMYoSV7G2QM7qShVYKcaRscHJuHtGkCXQeM4vHk9AO0HJeDnChUFqZz8ZDlX886BNABZr9mExPrgFDkO1Y87yWup+C9NRS5DVp7PhU3vcWlTDvSIx/u5Qbg5BaGMhrz9lttfbcvApKFTLyjNPcRv72+k+EgZ9o9MI3iIH8qu0dizkXJAOm08GmeoKDrKmaSNFB/QgpsbjmMfJSBGgzzyPly6p1Vb8EdPoUukEjtKyEvZyMUNh0wuuOE4j+xnMeGyuW4AlHhGKqm4ms7ZtWvQpmhh0ES6JEQi9wtHzh6jxX/0RHyDZVCURsa6dehStCBXIh05ns7DQ1DdPYa8te+hB+jshgwowYDueCYMDkIuL0ARJKNg907+xFIJBaCiBO2pQ/z+1R5K9ucDEtrFDMUnIRYXdTjK7ltqyC1BJofSc8lkvPUlpUUyHJ+eRXB3Ja7dIskhuVF1txsfTydnMFw+RFbSRoqPlEBAOC7TJ9LZC/K+mEfO2kprogaXB2LpIDFQ+MN6Lnx0CEM+0CMSt0nj8PaKpmPCl5YJLAB8ItFQwpVD24wu1XpPlK/Mwt/XDZc+GgoP5ViW37WXo3cHEC4vZO+2z+r/DPmWlEMTCY9Vw+kUNv9UR7HVb7Cw0nPDineVNRzlMshP5dt317L3CAROeYpRd3vjGBBFML9S6SxzIvF5TtS8uK7fkPcnfmQYjmg5/8VHbPv8OHnFElQx/YkfNxKvgCEMHrSbj3dVl3/gsSgUgP7Mbn74dDs/HSnB0cuf8OHDiKgapHfw3v2mgOB3Pswz06JwzPqChbPqDxIeGt0VR7RkHDauAumT08kb6o+q+xB82WCKfwmgpP/wKBQYKDq8mZ2rviMjX4b67iHc+8gAVJzlp+ffYLdp8clx1MP0DZZB0XF+Wv8RP6Ro0cuVRNz3IP2Hh6G++wEiP3oXC3VCIsOREvJSPuCzNcfROUcxav7D+Dr507k/8BEW77HSI7FOD0dz+gWglgKnz7D5OkVtwm4cncdH4WQHxek7ObvrQ4oLCsGxD/LI8XiaKxGdZhPYywW7ikKyNy/l91N7qahwwc7nIfwfGIzKNYrOvSNI/8F8FVyKXAnXsnaS9mkS10pdkd3zFuE9FXgEDSbr5+pA45Xxt85vmUn2sTPGg4rBKO8ah5OZZePajtH8aPoslA/uIMRfR+aq0c2YwKEfLkES0KeR8cpqdGdKABntBkTjfq/5dv108h550rSlpYHZUMeOwy9ABvocflv9HoW7Tf1b8FB8FsTiUtd1NvUp8O2eg0zsbkz0kfJ5HYleovuhcgdy93DitS0YzhtArkQSE4t7jHk0l13kjNlFDlR5vMkb6D0hD4tEXq7l0q51/L4ujT8dw/F47VE6OfvRYQgUbzKWMx/HKz3A66eh44mSDvdGIrfYEiOj3YDB+DwSiwuZZDy/CN25696Kdf5IIe9sDKpAFzyCoOD7RNK/TbFedsIcht2qhIITbF21kCM79oGiN5p/zGHk2FC6DH0Wv5XVAcTzXp3FVp8VDAuMYfz8BN6em0HUM2Pxk14jc9MsUvab1a2Yw7B/hKJAy8kN77D14yT0Om8c46Yx7LGxdOs6goHDZ7P1ixoyBY5lbvLYGgdre73lzunOfNP/jSvtjXxeNWms3C1CFKoHR6F2BMOFVE7vWI42x6QzhyTg7WtW1EZdvBKZUkFFXionPknkagFI7kgkfJAPToF9kZBSlfBDEhGBsx0UfL+AjO/3UlGB9T7ZPM5zpwWEPhaF09nP+PGj5kvgoIgMQkIJFz9/nd/XmSbeAeEoxscjN/Pms1kXl/fDc7AfUkrIT1lHzoaj/JkPeHni8twcOnvVJVEDdaZKGtR3tmCfX0mD9Uiz/taal5w1GjBXAlv1ZVvJRpt6BoMmACffAMoupHBkTWLt3VoAjCXm4TjU0mvkJCexeeUbFF0Gh17P0m9qAv18enPPU715vzJ+m24hGxeH8uSs3nT7xweE/TCA410TGRmthIJ9rHt+YePrrkQ3lz2HR9AtOoaYgdTr9VuUuY89m9dw8rsd6HXg0Gs+Q2ZNpIdrTyLvg8y11WWd1e7oUpN4e5dRfpWPN/qMDby1uAPjl8ahVoeiAvIA1YuTiVG3R38uhc+Xv8HpAyfAfSxdpkzjvlhvov+xhD1fzzDO29qKc2kUX43FxUmJ9Lbqw1JnDZCDfZ8gFEBFtztpR/VW0+K8LEBDezmgz6GkDq+30vP50EOJTG22E8sCGe0G3I3X6HCkgPb4ngYmSjpEce5E8K3Pi+/6NPjdD59OTGB70GWwfflcDu7YBz5j6fbUHMZEKCn6YSFvz63upxv17hVKFOWXObLmDbav3QC9ljBu/r34dQjj1v6Q+53l2N3j3SyGBTavVztA2ZUMDu7Ywp7t/0N3Lhvcx9LtBeN93nrXRLZuqmyfvYl+oDfOXCN3/wY+XTyXosuhKIZO5/7pcWjIYPP/DeB4M+bustkzruTUeo6uesloMENHxdmXOHusFFCjNI0Fdj37oJZCSepqMn7YSUUpxrJ56zn/4U7yKkDiH24KijgKVZgCKnLJ+PB5U71A6RlKfniatFQd2KlxDmnCV9nSGC7y28p/GQcXgCPbKMg0NbuGOLfUXznaA++RNn2NcUDCQPn7R40Wf8fKFcBIXMKUwEV++897RmMZQH4++uWLOHO8BPBEWeUCKkFxexASDORvf52c5SZjDwb+PHCIwucXkV+lmNhadzX69C2cmL7UaIgD2PUjhUWAREI7Uxl5Dz8k5HN+5QqjIQ6gWEvp2hVkHy8xbk+qVKjtwI4So6ybTlAg8aPD1HBcHDMp2mSALC2lgMSxWpbS/yzk7EtbTMYy0z2mbCH/vPE52DvXfuIl6Rv59ZktlJ43QLEW/f+OogXs7C1t17bULXFVYoeBwu8q3yNw5iiFX6WhR4Ksk9n6QPdoXNyhPH0Lvy2pfDfAkUPkv7WHQqBDgJVZoCGfnKRXyEzcY7ym+CLaYzlUAPaOt9Qu/9snvPDAPdwz7B/X304GfPvGI4y45x5GXG+7hY2UXf6OL599l71HSoASMlbu46IBsG+Ch0hcBJ4S0O1fxocfHSevGMBAXspuPvxfKmXIUHWv9nZzHB2FlwTKsr/gkxc285PpHenPn+Wn/y5h5aLaW2AbTgQRwUq4+ivHK9tV9rfk5ALuYUR0Ny/bEWclUH6WE4nfkZEPUELuN5s5fLIEJCrczPY53tbTHwfyObVyObtTtMYBsFhL6kfL+fFECcj96VxrQlrC+c/+xcr/Gp+L/vxB9h4zfWRNXYXuosYFKC5o5ty2Eaagy1lbOfnJIqMhDkC/l+IfnuBscrVhQRYZjhOQlzyf82mmCSKFVJxbRMamVEoA16CYWoNfcdp6flmziGt6HVSco+SHgxQBdjWWrAw6HSDFOSSO9pUTTt1OtNse4nyrRrHOp7QYcPTDObZyVa+EP3cnc2n6ChsSbtREgiIyCHtKyF37uskQB8YtIH9Q784sG/sUkl/nkVH3cM+oeraonr9qnEC6BdGhl6vxWLEWw7YtXHhmffNkByxOJ+PVeVxISuPPYiD/KIXpWkCCXZM84xo6nqiRKIHyTC5V9t+U8OfuLVw8WQISNxx9rVZ/fewG4/n4awQHSiku0FEBOIfFmrxDY/B8cgd3zF1G5ajZ7fZQk0fbUKMhDkC3j5yVQ9maeg0UgQT2N/+BFI48/QYHr4Bz3+kMe2s+Q/ygaP8bll4gAPf1posU8r5byMaVSeh1ANnod8xm4yc/o6c9fpETG3mjLciNJHen4Xh6AEUHOf7+80ZDHBh15tTnSd9SPXGyTRevxnAhhaMrnudqQSFQiOHHFC6XAnZSi36zXHeVCsApMA5ZpYudlT65NSgrNhqmlN2jkbqZDp45im7BQi6ure/K6zA60rhd7dg6spebDHEA5y9iuM7s2iadqUF9Z0v1+WbYqkfaVHfD5ko26cs2oaD9gCR6xgdgX1RIcQU4qCNw9jB+u+3jNnHH3B349jQVvy2ObmooS9vA+68ajWUAZQfeIGVeCjmApuu9lj+xYzzvf55NmTSQe17YzJipvXEuzWDrXEsP4UbVbSJ3VQo5KOlx73yr5wFYPoC3Hx3PkS93mPorKDswl4O/GudZjk41ypdmkPLOQsp2ZGMUJZs9i2ejS7tizJBrX+m9cy+3hrhD6Qm+mvaw0RgDcHkDp1+dzZ7zgE8ogXVL1jbkG+eHxm9YiSLQDd3lfPDqYvR+797BzDtTg9QJMBiouSv/esgjpxGx8W0iNiYSPmUQKjmUntnGb0tyrn9xc2HLu9coUQB5B5KMhjiAcxs4+W/jN+isNn+TjXz3pZfZ8+ZItq7dQBlQdmAGh0xTBIdm2drQEGaz/r4BbF+51GiIM8l9cvtxigAHqbkNIxTnDkB5BnvmzDW1zRPovnyclF+ugdQD72b+wG32jLuSsbrWtoaSC7kQ4VNVm0SpAEopyrCyunS11P0AACAASURBVKNL5ap2MCpnJyRACa5IbgEunURbayTRUZJzESIUtFcGAI1dFm5hzh+ksEaWlMpgkU2nBO1PNWPLJJMzJpnqpm1yr72cbiWziwF9Vi6E+SF1VgNawA9HN4AcCt+3EkvMAlvrrkaXnlwjtlk6eQlPmgUdDULmIQHc8J79NtZ3yMlwDASqVtcNlGuB4hSKsuLx7xXOn+kbjYkcio0TRanCtfryylhDYRpucbzOFisAtOTv3GM54Tx2xfqEz4a6y/UGQIlL/3EUHtpCyZkSCIjEbUQIjkBhkdku+HANCsAuaAwRG8dYr9DNEwlYrrToM9HuqvHdrV3EsaYooq1A3oENpFp8J7mUNHFJLdivIw6AIvoF5tThHaFw8waMRrYAtXFNN+/IDs437adrM6gXajnojx0x8+zT8tOJXCLUarxivOFYZZyFP7imB5z8CZ0Zxak1B8nNl6EeOorbu8mAK+iqVmO6onY3tp/g2cuZgzVkOAdg1n6Aq8c5uMGy3WcVXQHcaDLNvaXERHsPT1PQ5WXXjc0kUUqBXIrSrEx/zp7hChHIFK5IwCxWm45L+2qMbUUFVld2S75KItNnJn5Bw+jx/DAMeefIPbaTSwc+w9CqwfCPcmn1fpRTolENmobqbgO63DTyd++kcFtTFL/K8SGXPxoRkqfZObeNnG1dkMf7oRk/h05jS9BlneDSzi3VCzhN5XJ6rZhFhv+YJXNqNA0dT/6gXA84+eHxdCRZqw/xZ76MdvEj6NhNBmgxZNW6qEHI7knAT1VK7rbZZP0MygcTCfGPImx8AkfXgUwJFBWY2sJENGoAd/otzKKf1RrbowoGvjM7pEti+8oYuszqTY8IoxfI5n/X9npSdfHGAVD1T2RucqLV2h3dQ2sfbOMEDo2WuyVQu+IEXE3bwbXrzBRt08Wryf85sUbduej/qF1FxY+LOOWbSHBQFLc+uYkyXS6X0/aS++1646JGK6J/azU5bz6OJmAQISsGYSjKIe9IMgUbzBY0G4FU7YYdoMuyEuOx1WmpPt+MltQjGzhXsklftgXfFwnu7UL52c84+lES9FxGeHwAfuMTKVk+G1QKQEdJZfWR3kZvv5CJzE2uw9ju7l3lMVaJ7p25bL91BcMCe9KNa2RuWsiRtBrXNbJuADLfICU1jgkRQ4iJnot1s3cMmlnPck90IOoO7a2WsODcYY6Ye/pk7LOIAVpNb9RqgFBGfpHFSKuVedCxPxz/zurJVsLBck6mNVTPl+R34KQu4eq2NCri+xnjj2canVtKi3IBJQY9IGnAnLHePtjAlR9WkrnElkQMEuxsdpOqiQ3v/uo1ygBVr4n06JvNkR+MnnE9ZsWgAfS6y2aFG/nuzyWTssMyTl3hldbPlqoYvoJBD/Qm2N1sW7hVLqEvAToE0u/lZ8le/ga6y6EoRj/LwFvbA5coamZ/g2bZCmsntW7aLLNlQl1aarMFWlCDchut+IaG7WFvVN0NxYbJu8TD3Fhg2qrqqyH/2I91XBGEavE0NFa835qObXWXr9rChfBH6eQeTdfXLK1DFUWH+P0js47JrhEuqwIL6o/lUhcGypvLhm5GZK+uxtge3Scz59Pa552DepttVc1mx/9SCXgsAufoh3k0+mGLsrrDm/nGbEyrf0D5q1HKnzZESa9oqT0SFTu5uHwv+b6TcLsjCrW/D96xCXjfNYncr2aT9XMrZpBNWU/GgWQcxw/GtUcobl7hdJ4UjvfYTM4uWGRlAcUGbBkfWpjy1YtI2xaE/MF+qMJC6BAQiXJqJBVj93PqmfVGb5GbmhwKtxzFIyGcDtETCY+2nJwVH/qcK41aixyMc6ACtAf53fRdatetJvupBLz9R9H18ULkdlBRcM5kjGvfPH2KwgN3H8ipMZm7WfurG1FuWzI/2qSL28RJtJ8M54B6HB6RMajCfOjYaxQde41Cu28Rabt3ttQP16Y4jbzHn6FwyGBc+oej8tXQMWYiHWPGkLftdXJWN8Eih4GKFtANGkVL9vk3CDbpyzbQPiQQGTp++zbJuPD282zSNB8SHhFA8ENJFDsDFRerjXFNaPcO9pVGkPa4eAVCTZNZk/qUbDI37iMvIoYeI6eRUmu7XG/C/ruCkV0bYIRrBK0RQ6vJRIajdALIR/89EG00xclcNDAkCBdDNmdX76csuh+dgu4gx/QMy/VaQGtcHHPWIOsOeis7Hhx9jd6ZJbmWDa4qKUqPfnhOHUPHvlPQFP2r4f2P/A4UHQG06BvVlm1892vf4Ou7P2CITyjD5q9jmPm50gy+XvWGRfGb4t1bwXHKbqaODWxgbNf/kfLJJHo81RN1/2k83X+axdmi/WvY34xbVKFZnqsPzkFqoBSDKaZbuV4HqFGFDOP82RqZ6BQROFmsxOr4sxTo1A1nR4wx56oLI9N4AlB8qY54MgKghAoDoA5C6UMNpV1i1mlUfj25xsxSTt4o4iUUb6vP197Wum0hHX0+4HSRzGcWXney0a6mhWr1Io7VF8Mqvh8ezoAhh9/ef89su1VlrJBGiNzIutuNjMXdCUqK8rF3MgalrSg38EdWCuf+s81yMpmZTzF+SI6vIW2eleChgutyIjePESgp+uZ5lq28vuJ2segPQIlbWBSOnx1sxlgXEXQNqLkJqAbuYUR030DWMQAlfWNCcaQEXZEDisokDvp8cr83ZoGtlu1X8vMh0CmX1GfmW83K2uqcKaCYAOSugcC3zVatQWscU5wDR/FbWv2xyP7UG8MmuEb4UPBjjU7FP4AOmBsfGouOsqxlXMyCiyhwCH6RrqMjUA+aTP7PM7napLptpPgi+qQ1XAAuyD2RPTudLmF++E3qxy9z9jSiwkovrQ44+GDhkG4/KZQOzSO17eSnU7zElF3MLQiXl6bQ2SsazWN7ONuaW0BaBCWK2BBklFBc5ICjKYlDuT6f/O+tZDdvMD60VwBlCqR2GL2dKj7j/KcROD8UhZPKBSjl99TKmGFJ5F6eAx2y+frRfg1XOEMSmfBUb5xLT7B5A9wzIZQhzyzh9KMzLLbO5Z6/BCjJ+XI877+5r67abjhuKLmLrnINUPrH4PBtar2ewrbp4k0gdz2Xtq3n0jZAPZPAiYNR9R6H6lBrx3o2UL59G3nbt5GHBPv7JuI/PhzV4HEUrl7aqMyElV5aEjclFrs/ggbhXGe8uBam2fv8Gwub9GUbaG/yFJU6KzDuGdVRss3k6e7qghNQduoA2krPg9OXKCIQx9SlvP70G3VXbIE3moVLGOIHeclJnAxJoF/0dIbE7WC7uXdQo+o2Y38S+zNiGHbrEMJqzp38JtKra3tAy5EPFvL15xuqtivWzlppKxnkXQE/6c+sHVodO/TGwg3F2EgUQHn6IeMYtD+fEkBu74BjqDftzn9DMTkYMrXYh4cj9wBHoKQCIB1dTgk4u6GKD6HwWI1VpaBBuHeVATlcrcv778geLq71Qzk9EtXgiRSlNCTmqwTptMGoJED+Ca7sv155K9j67gcmEO0D+itaymRKYxKH8mvozh82Zke1uPWb4d1bozc9+hoNcUWpa1i3OIm8c5bZhJ1rlA8bYowRW1TQHoUpiUNZiZbMr43Z05sbmx1wpMo+ODiaYkM49sEpPpFAH6DoKHlnjYfLjp9BC8giEvDvOxg7KYACO80T+D42GJUdaI9/YVIAtlJwthTsfAh85DWcVKbYcNIonOKWEhKhgNKT5Ke2rst7S/JnqXFw9xw5AqlXk4PKAT9yJdMAaOj8z0eR9zI1NjcN8tmzCAiTgSGdwk2VRjctf2TkU4GMjuNn4TEhnHaVTmcB4Shfm4nbnY2t2zaK03OowJPO/3wcxQBP2jUxPo9RNmMKaVxMWc/0+ZScNClRAeEoZs/Eq6lZI22sW97dD0l5Dpfef49f/zWP1DFPcuyBZ8h4fhulNRdMvj/KlWKQho3Be0Yk0usZcxqLfCTzPvmKr7Z+zJyB13/wUU+sZMtXX7FlyWN0axmJmo/kdPIA57ue46EHI/C6TjvLO/QrRYBj6IM8+uIAIiqfuZsbEY/NYMpMK9lUi/4wGsZ87+Ifo7ytZzIzbVEtO72BhfdPrfVvw/58wI3Od1d+NL3pHCCB83vZufQNPn7hGWPZiS/x3qpfa8WESU3PBtRE/HMqA+5Wo2qO9lODYr2xbav7TKZPj+t8i8knOVcKaALqcGFvHBXpJymqAFnEJILiE5ApTCkEpAHIei3D3yyb6tVTZ4xu9wMS6RjSx+Ty74IkZAFBoyOQUcrF1PXWfqYBxODx0Id49x1F+0oZ0FGWc5ACLSCVVsXDNMdoIFSgGTST9o7NkvMO7hxH5+WP4xIfVN1/F2vRH86kBLCXWntXpsUVp3A6Tg2po7/NoeR3YyxQzdMjjPGX3DTIZ88hON6v/jCoNvYp3D6VlZ99xVefvcNjwXWUmTCNLm9OtBwf9LnoTl6knDriGBWVGLeG+t6J52hN7fM3HHfgHCCh/Px+fntnEWnPzyZ1zJP8MmFeEwxxAAfR5QHSbvjEj0NiHBiRKKneUl2Wy5Ws6p7lZFo24M3A176kx9A4rvu5KhIYMt+YsOHkx49z/IPH2Zp2DQe/e3lkYYJl2e0njLGQ4pYwcso0FD5NTt/cOjRabjmDX/yYr776iq/WzGFwc/TPWUcp0IOdZjDdHpiJvFJntvMx9nEjqp+5bbq47ShHr8c/LgGZ0iymc9EBCnKN/Z29tRBjf+hMbTMWr5C6MijbShBui+fQcaq5vmSg/NhRrlzFIk6xOQ3RxctP5qAHXPo/jktfGSBDMnoifq/EGyfN9WCTztSQvrPF+vwbC5v0ZRv4IzcXkOJ514s4uZrGb2dX0FcHDijKOlB9wdf7yNSBY0QCE158FnXX629FV0z9gPHRSshN4dNXF5LyTgp5KIl66gN6hJgVbETdluzjyLaf0UlD6XVbDS8oH2McMEqvkPfrcaMxxmcsXWZ9yciIphjiAJI4lXENZD0Z894HdOkf02CvHvnAOXy81Qb9wFbkSuwHxOLxziz8fSWAlt931jBOO0bg3lXGlQzjjqrSI5noJX643N4Be7TofzMW06ecoBiQ93iUzjMikbiBMUlfPJp/xuMmAf3x5PqdSL5fz4V0A0j80EwKr6egjHbRkbi89jLBkcZ4iXl7v2xgwoca2Pju1XeF4YyWkxtf4v05j/P6cF/mD+zKWw+N52RqzRX+xr97WzA2RyW3/mMFmmbREQJRmLrGwvMnKDqXDYreqEavYORjt1F7g9u99OjanrJz+/j037NY/n9DmR/ry7+Gdmf94jX1LIA1fry3+Tm63vkSrnfWOFhRSObmxOoBPW8RZw6EEN7LBY/YmXjEzrQsnreXM99WerrpuPrVVnJ9R6FWRRA69d0adZeSu+tdrprtkWwft4kevWpoiP6juGOuKR140UGOvP1SoxQMY4Y0yw/WGJDR9EcDs7PVR/GRTAxBQUi8YglZHFt9oqHZjmphoHj1TvJeiUflFk6X52o2+hLydq6n2Gw1ybBqIxe6PY7GzZNOwx+l03Dz8lqzeHS2120LfyZt4fxt0/B2CyFwSghMqVHA7JlIlMZcqg3muxMUDPFD5RRO8OI3GydgM9VdrjeAvYbOT8+qfa74Innfr+P39yvXGY5y+Zt0VMODcOs7Ebe+tevL2/YkOdfLbHk9xscQpQRwoU/8KPi6Pmv/XcT38zYaObvEMPL2VSyslR2sK2Pfm0FgjcCw6qHLmTPU+H/94SW8mdiUZAgNJPsLftgfxYhoN7yGT+ah4TULaMlY+jwbKhMqHN7M3gNhDO3lhnP3kQztPpKhZqX1h61kSz22j/OX++PsrsR37AvMMEv2V5l59Pborjhi4PzP1pfPMg6fRR/thiKoP4F8RAZayg2A1wBGvTigRmkD+su/cnx1EjsPGIfpvFWbOXXbDILdwrh9Shi312o/B9ny6Ae1s9DaQNYPxynq0x9n5wjueiGCu6rOnOWn+99gt0XprRw9+wDdgrvRZ4KczWubaf9g3jIyf4wgvLcLrj1H4dpzlMXpq2b6M8ffJT0ikRB/FzqPfonONaq6lr6V88cbv7jTTqnGKzYBr9iEWucM6alWg2hfTTuDIaQbEp/B9Jg1uPpEE8YqkCB1D6HzpBA6T6olCXlWt+//yJXMEXgESXCJeRyXahtm9fYKQL/9ENru/VB6xRKyonqMqsjPJF/qV3d0QZv6FLgrLgZvGUAAMfdFserfVjzg7STIfSIJnBJZe3xAS+F+K8aqY/spvNwPpbuSjmNn0dGsbTa+77SeMVAz/W0005ta91XKDWDvFUvIS7E1zhnQXz7NhQ/fQ3vAVvU8lYJ9ZzCMCMApYhK3RVh+KBUVgIMPQQ8t4Ojyl7hWAfrFa9gTPYd+7qEMe2YFw56pUeWVfbx733iMO7m88Zv/LFGuoEtNYuNao/J+8vk1nNyUQLfoZ5kwNaM6kUPmDL76rjeT+7sTNvZZwsY+W6PypmRQS2RC8lj8ahyNeiGLqBdMP7/Jl7XLjf+36iVgnrXV/D4bLXcg4QGmSb+qD2OfCGfn602MPVaxnvO7++J6TwDyoMHcGjTY8vxZs9mhTbp4I3B0wSNkFB69RtU6VVFwkCJrmaOLksm7FIOzhwveoxdYxArO3RZH1s+NE6Wd0hPPmIl4xtQ+Zzhz1KpXXIN08V07uTginM7uGjrPSKTzDFOZ8nzyzklQ1ZlbriE6kxkN6jtbrs+3FWtzJXzjidgYb/x/o+czturLDafsx73k9hqF2jWC0Gk1FuQqjOG/VIPmcvVCAhdzdMBSvv5yBN3GBuIXO43JsdNq1WnepxCygvtHB+JINl+/+rAx1tv+h/k0+SBTYwMZNn8dlx+qTORgY93W+OId9o/5gIE1DRbfpXD6Sm+iOhgXVQY29AE1kMzlWzi9dCxd/GIY97KVBldHjM/AHgG42AO40Gf8E4R//TpNj8SotBiDqyjXcvHzRWZZknMovQqoNbiRz2/7KxMLHqVwQjgdfT2x8Hz9fj2/RQcRHKnEpe9EXPpaho6oyN/P2Teut3PJQPHqPRQujMWlezwdgo5yxay5qeLfRhVf85oSrvywuvHZgm1893rdNcCdHo8toUfNk6VaMvdv4PN5C6v02sa+e1s4+dMJ9CGhOPrE8ciHcdUnLHQPW1jDL78+S3S0Er+hifxzqPW4r9VoKS4FB584Jv8nrtZZXe4J9ix/nIM/1DRWNn68b7hnXFYyZ38+h/aP6thuFWWlaM/u5ZellR1Xlahc25HAka9OUqQ1K19ayKUfVvPzigWWwWF1SWQtT+Ls2UKuVZocK6Ak9ySnVk1q3Rg8rcGmlaRvT0N7tRnjsKXvIueV9WSfy6e0Klq0Af3lNM4ueaX2fvXiNPKeWciv+zPR6avlKC++yMVdayzTvNtat22Ck29FDmu0k0qo2v9vlSz05vvDzu0i58Nk8otq3F/Ke5za3xSZba+7ZEMKheUABkpr3Ke93BPPITPpnFCt2Py5dilpS3Zx8bIWQ73pC5vArr0c1QLlhezdVv/WP/iWlEO5lAKlp1PYXJ9SeYNwYtF8Pl6/j7yihkxgDaS+YaV8eQlFp3awY5U1A2I2WxZ/xKnsfMqsvqMoAgNkYDhLlhVbHgDf7yPnKuDWlfDbAPbx7femDr7cQJmF6BIc3cOIfPZZBlfpXr/y2bPz+Xb/WXT6xnmnXpfDG9jyUUOfYzFrth2lGCnd+jenB6WOa7sT+PnTvVzKK6XM1IAqynQUHd9KhkXmvpNoP5rNLz+cQ6uvjq9bpsvl/I5EjnySdN0kEHWTwsVPPyPTfKwCDFpj3Yc/SbLeh6W9xLEa42GT+X4jv31xiPwiQ3WCgHIDJZfTOLvkxTqUOQPF/1rK2VMXKanvdR7ayNmk/RQWG/uqivISCg+t58QzX9a/HGJTnwLf7jlIbglQcoaUz+swCmxax6kUy/GyotyA7tx+fp03z3KsqiKHwsU1x6wbmf1c+i6Hcoz3Vlqr3Yfg/9xMOjQiqXzFsSc4+omx3VjoYgfWc+RfM0nPKsXO1ZjQwbg6m0TKozPY+F0GeddZ+1JM/YAxEe1B9zOfzzXbaqVbyMaPTxizjA6fY+ERkjtvJG+vSiGz4FoT2mHr0zi5j7Js3cEqQ5Daqz7viIZT9vMTHFm1lfO5OgzVL9Woj28zNzLYqIvbiHbbMjKO51JsZnEp05vqXr6gjkWGg+R9VEPfbzLp5L2/hZwa7d1w9SIXdy3lxPPJ1uNfNkgXz6HwpffIPm/ytsWA/vwhfn31X1y6VJ9MNupMDek7W7LPv4GwVV9uMPrquaZluzlI2ruj+XnHOcrsXPAbn0hVcuCVA3jr1f9xPFdbh55nQpHAkPlxaICcL+daJD/Ie/UN9uQCrr0Z+UL1Il6D666TFPYnn7DSHyWxfd4ajuRqq8+ZDCvvrrNW3kYyZ7P+obls/+UyOhusrUeXbeBg5Seq8qZ5ekNzDJRevcilQ1tIe2Yev1skKiur/o6uZlJcFQfuELpz1bvGSg+b1ZU4jxPr9lvO8/T55O9fz4mGxqpN38Lvh7SAJ5pJ1lMiARj0+RQeS+bXf71C5hKrmTMaiG3vvuidDRypzLhaUmNskyrx65/A5P+YGYob+e5tYu3jvP/5CXKvNDmAQhW5/36JzYcvo6tsZ+XXyMvcx9ZX13Cy1n0sJPnrbOOzKL9m7jgLgEIdypD564iuufLXhPG+nY+Pz40So1kg+IsShCppGhp5Dmf/tQitedY+uRLHp2cR3F3ZLF6XbcndKivp1loYx4df4Jkh3g2ODXfDc+eDzJjWG8fsHWyY+wVZZoO9o1cUo+Y/jK9TtefdjcI3eeb7keQ88NbHTAyG7C9eYMqKv9hiikDQ3Nw5ji7To3E8t4u0udsss5B7ReKxYCKdnJrJI1rQygxm3icziFJC4b6F/OPVvW0tkEBwA/P30Jf/rgyev5EZkXIo3MvCfyxE9IZtSW/C/vsBI7te48jicWz9wnwPTSjOz6xg6lBvHBrtkXaTYoojp8j8H8tnzKDI3NfM51mGLZlGjw51ea42brwXSRsFgpbmzjtwcQaQYK92NYvZIaNd93CUHY2b2YvzstpIwJuBrox6cwZDh/qb4qJJUPXqz6hobyCf3EN/AUMcEBodZoz3IJHh7K2szvzj5obvHWE4OwJo0d3QkVOL+WTJNs6USvEe/iLzWiI2iEDwF0IaHYocQCpD4m3m8eHmhjQ6BIWp3etv6HYvqIncuw8PvDyWcCVALke/FlNPgaBehL7810TuTZ9x8xjb3fhCc4/uEoa4NscYGw1A0uE2FO6Vx71xvDWGLl09jN7yl7P/PoY4KuPoAdL2KPx6V59wj0Hdv6cptIqWvNOW1zVlvL9Zs9QKBDcPhzMpNkQil3jSecocOteKewQVxWlcWP8XyEnfgjg4dyViUldqhD2i7NRuvjxs/ZqbjTMZv1N2mxIHdX+Gzu9vEbeuEv2p7XxT51btG4TfVvH8Mm/enRlF1BOv8Vj2dFadamuhBIIbk9IzuRgilUjU/QheYH0rS8mpneTf6O1eUMVdL29k1u2VloRScr/dwLKbILyDQNCmCH35r0fsPDY+G0VVb3jxWzYsa0KsSkEz8TM5uWPxUysJe3g+YQ/Pr12k9DIpG5sWA+5mI/dUNvroUBy94nhkSe2YcQC6XzaQYhYjtqnjvX2HDh1eabzIAoHguhjOcfXXC1xTe9Fe0R57B/uqzF6GqxfJ/3krmfO3cC2vTaVsMv63tGRAknyK9O1R+3ujcLQ3HirO5fy377H6zcO0/gbZlqHs5M+c10lw06i4xbG9KRMoUG5An59BxhfL+fi/J7jR/AAz/6idVs5w9lt2XvJlYHApP37+Lel/lZckEDQ3aUco0ElA44bUsT32Zu2+JP8Muf9bQfbypsSREbQ2vnfdT5+OUHw5nV3Ln+HFj483LjueQPB34m+iL/+t8Ivh/t5eoM0lffdynpnzMcdFZ3gDcIKs7wvQarxxU8m5RVLtn1VWouXCsR188uxI0n5pQxHbgmN7OKHthLyzB0pZexyq9LFr6C5l8dMn81j/H8vY000d70XMOIFA0Cy0Rcw4wY2BZcw4gUAgEAgEAoFAIBDUh4gZJxAIBAKBQCAQCAQCgUAgELQSwhgnEAgEAoFAIBAIBAKBQCAQtBIN2qbq7+9PYWEhhYWFrSFTsyHkbn1uVtmF3K2LkLv1uZllFwgEAoFAIBAIBIK/EsIzTiAQCAQCgUAgEAgEAoFAIGglhDFOIBAIBAKBQCAQCAQCgUAgaCWEMU4gEAgEAoFAIBAIBAKBQCBoJYQxTiAQCAQCgUAgEAgEAoFAIGglhDFOIBAIBAKBQCAQCAQCgUAgaCWEMU4gEAgEAoGgofjE0mnt20R88jKqGElbSyMQCP5mtJswjZCNb9N9xTik8raWRlATxym7mZWcxdwN69Ao2lqahnOzyi0Q3Mw4tLUAAoFAIBAIbgYGodkYj+rqIdIeWUNpW4vTVsSE4+EI4IZLLz/yUtLbWqLroMAheDa+90ThqgC7CijJOUjGppco1rW1bAKBDdw5kS7TI5FnbSP1uV1tLU2bIe8ehBTALRTlbZD3fVtLdD1caN/rVQJiA1BKgYpStBk7Of3pMgwVbS1bXSQyIXksfhkbmD95tk1XdrstEEcA9zBujYacr1tEwGanYXKbnov5oUY8I4FAYER4xgkEAoFA0ILIYj/k1ufX49mprSUJx235q4SumGicyP1V6R5Lp6Q3ufW1QS1Tf8pRLumB8nwKD2S2zG80JyELCL8/CpXCpPTZgcwnitAHZyP8+v4ODMNj8iZum7qA9m0tSku3zRsE+wnTCFz7JppJLVN/8bF0SoGK/BNoD7fMbzQnkrsWER5nMsQB2ElRBg2j+8hxbSpXS3HycAZ6gMvH+WV/GwgwdTdzk7Pq+HeMIQOtX9bm9IXk6wAAIABJREFUcgsEf0OEZ5xAIBAIBC2IpJMaufRGcEHyROauRHK1reVoYZw1yJ0l2Be1UP3nkrkwIZkLLVR9c6Ps3g0JpeR9u4iM71PA+Ql8Jw9D7RGBqwdcvNTWEgpaFjW3qBVIWqo92EJLt80bBPtOahSOEqNhowX4c+1S0ta2UOXNTh9cw9TYoeP8p6+SfSoVfBcQ+mAUTsF9UbIebVuL2MzoVw7g9ZVtLYXtNEzu2ayNrfSCs+IlJxAIbEIY4wQCgUAgEAj+qjgAZHPp+xTj30XLKLgwDLX/Ncr/tnuNBQJB6yA1uuQWneTSqVTjoaxk8rRRON1Syp9tKttfm8xNvqxd3tZSCASC+hDGOIFAIBDcHDiPwyN+OF4+LrR3oCruzJnNy7hmYVRQ4BA8E5/YKFQqKXZARamOgtTPyNq1njKzGDXt4zbRo9dF0l5NonzQVAJ7+iBzgIoyHQU/riYjeWstMRx8ZtIxrg+eHgoc7Ex1H9/Kb1+trop/Y6zXPAKyAr/HdliuIBcd5MjbL3Gt0Q/EDcepY+jUqwsKuQQ7wHA1h8u7N3JpXeX2ySBU709D42R2mVMkIRsjLWoqPrSU04nmsc9kSBMmoYnugsLJWHdFuaF+ceQjmffeY0TJC9n79mQWfl1cb/GoJ1YyZ6g3nN7MCzNWcbLOev1QTBuBOtwPhQTAQGlRJr9vXE/hrnxTIVM8O/PrfOOJ2BhvUVXetifJWW36wxR/ikNLOb0KlM+Nw9v3/9u787io6v3x4y+BAebOOLKDCiirgguoYBeSCm4qJi65XJKuaF3RfmaaLdq9Ll23CrPMXG6GLdr3uqSZueLyAMuErmCKCxiiIKKyg+MQy8D4+2NYBhhAQUG7n+dfOudzPud9DjOHOW/en8/HEokhVBWnci1qI8pTdedsPH85nj4Knd6UZK1dqHe+Jm3bAtKmbqVq1hR6DLDH1BA0VaXcPrWVax8nNd5pSAjdpgRiaSbBUM9lqBf7fVAXqwAHrHw8UCamgP0yHHqCJiuJYn0VSt5vEfBSKL69rJFXDyurvJ3HpR/XsveTLVTqNLVbcY7pfpDwfn+OVq1h4sxg3Cy0gyGLf/uBrW/PIb9eUagDZmGRjJs4CPsu+gZNKkl4vz+HauYqkofT9x/hPDXIFavqWMoK04jfsoITe2Pv/2K0iTkmgxfj5O+CQqG9r1SqMrl+cAM5NUmGGsaBmIVMoUdvO6RGgAbKC6+QvnshxdlFOg0DsZ09H6fC7/hlvwrbseNxsNfeVypVmWTunk9uRlH9vvFAOmQ6PQZ7oKgeeqxWZnIzZjO3zp2s36+Zzm5mvgxYHF2vpzunIrkY3YbrODgIq9AAbLtrPzeaKjW/Z5wg68s9lNXeTlrx2QSQ2SKdEUb3Afb8yfQe70FPzGTjvBAcuMLuBa+x6VJzjWWMW/o103xkFMWtYfrywzR1xzIcNhabsX5YWUsxBDRqJbdTYrj5cQzqmp2mzMU7pH6NkFXIp1jVO8100iaupuYjob1PoL2PaLSffyszCQaoKblymIxlR+r613cvb3L+zuq2Bfs5u/kOVtPG0rW7Nvaqkixubl1LwZHSBpfDFumsKTh62SPVN3691XOFXkGtBBw9sLCXcytLhdHACdibQenZn9FXqG0UFMnQF0fQz1GBafXNsKwwjYTda4nd+kO9tgM+z2CUaxr7gl4iPSyScS/4axcfqCon69QWvl2wgkZ16d4LCHwtFN+a/qvKyU+LZvfiOWTn6QnIewEjXg/H11F7z1Jl/8qR5eO4kKzbKIIR3y/At4vOS7fj+Pz5MLLrdeZA33UnGOcJWXvD+PKTuAYHCyVwRyQB1nmcWOBLbO1w0T7Yvb6S0UF9sKv+alFZmMbRDXNIiLmoJ+h7da9xt55R0BpGTwukt51Cm3ioUHI5ehU7G/w+EYT/RWLOOEEQBOHRZ7+MPrOm4OxcnYiD2nlnXIMCdRrKMQmOYuBfn8SmOhGnbSrHavAUBs5chkmj33wO9Ji9lH6DtYk4AAMjOVZDIug50LF+U8/VeE0dTnc77QNzbd8DJ9Hd+4GecQskyFb8k96BniiqE3EAks72dHt+LG1bCM0S+Qf/ovcwTxSd6/o2MJQ0/6UhLBBfBWBozpMh41s4xjOEBDhgDBi7BTLuiaba2WP+4VxcfWoScQASjM3c6fHCyAcz953pn7H/ZBbOLtqEAoChmTvOr89A1qaVCu3pvn4evXzsax8oDQylmPuFYz9FUb9pYDhuc4Zh00Qiri1Kj58kX2OMTfBinF/YxoCpvsgKz3Lx29V6HoQiGPHuLAL71SXiAIy6WNN39FLC3wxstAeA9JljvLFwTG0iDsCs1xhe/mBBvXbymV8xfZp/E4m4hkIJ/Hwp4/zqEnEAphauBL4Ugd099PDgeKD422YGBHtgpqi7rxjJHXH6awT1fpryCHq+Pp/efe1q7ycYgImVC72nb6bnQI/G3dsPp9/0KTg51t1XjOSOOL+wHIVpvc7pPCESryAPzOR1X+IlCkd6jA2jwbvq4fKZiPPbY7F3rPvcGBhKkLsE4fC8e9v6lnli9dECevk5ITe993vQM8GBOEgBqQuBz/u2cJBJBPpoP+DmT4TQ5B1rwix6RwRhW52IAzCQKDDvPxbbCfd6Qs2T+M3Fs/rzrz0/CTKXENz/GdC2jrv/hV7/nIR997rYDWX2OEx9BXm9X22WyP+lvVfpTcS1SSaFP52lFDk9wtbR42+7GBjigibjMMn7v9PTPpJJC0PxdapLxIH2cx8wbSWjJjjo2ccEu6W7mT3Nv24VUEMT7P0iCF8YWr9p8FZmfxxBgG7/hiZY9RrDX1+PaNy1dRAzP4yoTcQByO0GMm7hV/UTzPfsOheO/IoKsPcOxbThZr9gPKyBzDjiaxNx/nis2cb00XWJOAAjC1dGLNzNpBn+rYqkPZhOPsDshWPoW5OIAzBW4DZ6KW/8O7Lx+QvC/xhRGScIgiA82gwm0SPMl84GUJJ6mKtHvqaksAhMn0TmE4atbkam23xcB5tjoCni+u513Lp0Eo3GHAPHqTi/MBwrC196+HuT+rNuJYsxMgWUZxwm+dsoyisskD73MV4D5di4Dyfj16jaljXzb93YM5fr565oX5QPR/HMJDrrZDbKoyfwS3URiuJv0Xg6q0jfNIGcBzbRWADm7hIoSybtX5tRXSkFpHR61g/rMboPwqnkvzybfOCeV0MNnYSTixTKsri2+QuKjhUAEjr1HonjsiDMm9rvyEmS/uKCl6yIk3ofsnQdJzYxHK8gO7gcy+7/NtHMLwArayD7BBc/2IP6hhpkCiSBQVgHSnUPTtbEI2TBfa+4KOvrg6xKSe6RrdzamsxdUy9sPvg73cyc6DICSnZp21VELqTmXVNT0dI8CVIZVGTGkPbxASqKpZi+MY/e/RVYePiQRUx1OwVdxvggQ83txD1kbTqBukBKp2eH4/hyEOakk/bOalSZLZ6Kfr/Hkn81ECtXc2zcofCnSFKPN10NVanK40L8DuJ+OET2bxdB7o/9zEjCgh2wHxSOGbHUL6hT0NdPAbfTOLRxMQnRcRiN3srM1/0xc/XHA6qrHmcRGOyKKUou713L95uiKMMfq+ffIuylgZgVxvH5BJ1qjKfH0M8OuBHLhgWLyc+8DnJ/rILDGTqifZcikDwzn97OxlCWzbUj28g5d7j6vjIB22EuOi0dUYwdhZ0pqDMPk7zra0pV2ntV52Gz8PA2x+7Z6eT9Ord+FZaxHJmmgtyY9WTEHUZjPIqu01+lh5kLFu6gPFfTcBKWvY3h9xSSP1uKUlUE6IsjlpxPY8kBIIKei8dj1+ZK3AbXJNALBXD759VkbErnbgnQ3QnpmJFY1XvCvv/PpmTGROwtQVOQxJUvd1JySglI6fR8GO5hXkib2O/4iQTC+z+DHVeI/T6hhTM4zMlzw3HpL6Pov/tp6o4l93FHQik536/k1tbqSlwXL+RhIch0VwLdvJqz1ZV9NVW091bNqsDWR4HmTipXv9mCMlYJw8Jxi/BB5uSFjBPV7xXde3l15VtLXUukSCmlIHYzWZuTuWvmg82ycLp1dsLsaVDVzDs3bCz2PSVoStLJ2PyFNobuTsim/R2XvgpKT63j8odtWDU6K5bsfG+crOzo6qzixq53uJ58tsnmlbfTSIjew4lDP6DKvA7WoXj8YwETvRX0eyacfbtWNNjDAd8hUHYjjn1rV5BySonZa18x/XlXrDyDMWOH9p4lX8DE1/0xA1S/RbPvq7VcPnURHENxeyGCP+t7Y3WxxgolZ75awaFvdsDgNUxaOgYnu0EMeBqO/ljTMIpDz0dxCKitNmvqBPfu4MyLAwlwHMgAJ4jXWQfILmQQVkDKj6vq5hycvIBR/RRQeJF9m1ZwJjpOe19+cQHjQvvgNvItnDaOo+FyQk4TMljcMGHcqOrtPuK+X/IFjHqxD3KUpOxYy77/RFGmcsA0eBajpoXi0WssQ0fPZ9/eB3VAQXj8iGScIAiC8GjzHoKtKVRm7CNl+/q6ap6yk5T8fJKrOk2lPl50BvJjlnIjuWbgYxGazNWk7bJF9jdvLNwDMfj5LLrPUSXJ20jZtbm6bxWlPydQPDAQswa/JdUqFSDHzDOY3EvVw2NVh1HuP9zOk1AXUFECyJwwC3JAdSUVKOXusRhyj8W0tHMzJMh93DGklJvfrKToWM3rau5e+p2q5na9tp1/vLD9no90fNXLHF/VQqMbd6gAZJbudBlsQf73OVCiRL1/Dzf33/OhmleSStqqjaguVA+BK0miKFVJt8EKDNpUGQelqTtJW3Ci+rqpKfshCWX/ABSGum8sOyQKoCqd3MgTaKMo5e6xPeT4+WHe3xLTnrQuGWcwHNtX5uJkBSWFKqQWcsz6BmHyUyzlmpqhjFdIXvpq9fs3iqOTo+r3oYoja2Uct4JDcZKa6K1kUCVv4ct3FlNcPR6scm80KeH++FnotnfATA7knebQJ1HVD5px5H+ziPi/HGCEow1doe4hMTMPFWBm3RffIQM5tPU6qOLI3xXHtl2tuBatFohFf+0E9Ne2zuJWVs2gtyI0mVHc2qTT1HQ8Ns7GoDpL8pbVlNbcZMpOcmdvIWlWq3G3d8HMGUp0b1waFbf2LOLahep7Vtk+8s6Np8dTdg2+qWdT/jvwJwcsPL1RnorVH0c7qCxWokHBn3oFYOqURekFNdxIp3TDOq63qWd3uvS1BLK49t4XlNS+70u5W6Cud99uJGYlL8esvMfjXGf7OxNp6Y5VWaL9Q4eivx8Fh/dTUQBcSUK1LKnx8MdWKkvdw+X3YqiqydAe+YWiiT7IzCR0alPPpeTuWsnNHdVJxJJECpJG0m2IZf2xUV0VmAKqMzu1iTiAG+mUrPuF258Nw9ymJ9DKZJw8gp6vjMfOtII7xdDZTI7NQF9uJZ+lUm+ieD7bnm/QR94OUg6NodjbHzNj/fWf+T+v4vPF62q/HxSvPc31511x071nhQfiYQyV6T/w+f+bU/fzy9zB5ZU7uKyv46o84j8ax9Ho6nf1qTkkpo3ByROMWl2avYPzyW8R8LQDA14cQ/zymqG3EQzwVEDpryR+Vfcp8niiD6bkceKjkZypqZZTxZG1cST7ev3GZG9XXJ+G9B8bHahjPe+PmzHk/7iCnRt3VL94nbLo+eyUuzFv5kCcfMJh75YODVMQOpJIxgmCIAiPNBMbWwyA3LPrW5xfRKIwBrIpTtYzA9nVK9zGG6ncAgnoVIioyI3bXL/v4kK9K+GVHowi3XEuTu6jGPDOKNT5mWSfO0zuqe9Qt+tk+Enkbo5HMcMPq2GzsPqLGlV2MgXHDlO0P6sN/TphagmQze8tF5U9fJn7ydrvhizECfuwBXQLLUWVcZHcw3tQxT6g9Gdeal0irpr6w7oquNZTUnD4RP0E5rnbeioSf6eqDOjshM0bPmRsTuRugZROIWPp6iEFlKgzWheB9LkInKwqyN4/n4xfQfG3SDydfekbFkHSVpAqgOLC+tVSQ5Yy4qWx9eZraklecl0iTmsLRyds4Wi9VkrKKgDrQQydEcq+/+zQVsa9uIAAR6BUWb/iLn0O3+7qw8wJrvhOW4PvS8vITrtAwg/rtJUh7cYVqRlQmER+VgvpFwsLTIDKzKS6RFytFEpuqsBejsSswSZlCtkX6t+zKpX6ZjDbx61vvTGf+iR2wfOxGzYX5c1kcn/6jvy0lirBHqy7UV9w1WUezi4+9HrXh6qSHApS4sn/vxNU3Ghhbrdm9cS0M1B8nd9bWw36AJV9vJmsj17B3mUYnp8NQ12cRf6ZGAp3JKIuaHn/e6FK1UnEAZBKfkRNFVwb3LlI/o76QVYVKwHL+u1K1FQBfxowFvngLahOaSvj5DMD6AJUqApbGYAjFhPGY2daRPrXEeTcfBLbmXNxch5Pr+BMLp5zRAZQmFnvHiQf/RnDXvCnt7UCo3u6BylJP7GuwfeD+WyrXfVTy667DQDpp+bceyI1PaYuEVet6Hbbf/fkb4kj6+kx2HuOxYwftPe+0SPw6AKq0zE6VW7h2NsBWBOwIgP9A5dNsOoNNEjGdfQCDlZuDhgBVk9HsjgmUm8bU+s+7RuUIDxiRDJOEARBeAxUcPc+ZvrV6MukPQiaw+RsOElBzylY/tkXO2dHHIIicHhmCtkH55Pxa5PLEDx4sdtIOxWDadhwLAb0wbK7Fz2meOEQms7VZatRtWFUEWr1I7PKXdXm1STvd0f2twCs+nrSxcUHxUwfNKHxXHpzm7ZC8LGWRdGeJGwivOjiF46XX3i9rSWJ33O7VUmJ4Zi5ykGZwK3q96Vy62auvx6Bg/N4er1ShMwANLoPwkO3Mvsf2mFcD94KDkUH4zbaAY/QSDxCdR/Oykk/sLbRMCvVhmdZuTMcjxlj8fPug30vf0bN82fUS3F8+fcwWsqNPVCV977yY1XFQ8zMZy0j+T1vpD7jsfH2wLqbN65h3jj/foVLn72Kst2uSQGqd+ZzbkgAloF+mHvYY+MzFhufsahOfUbah8ktd9EcdWXzVXDtpSSZ/FfepGjEcMyf9sKqpz1dA8PpGjiR/P0rydr8gDJyHWnXNq4NeRfn7u64vr28/jZ1OpnbElvXr8EozByBjJ/JyVIBh8n52pPOrw/HavCreDpX0Bm4k59Wu4vpjGPMDHV9qHOJVf7+EDu/V+mrOJU8BnvPvgzwg9h4cArog5w8Tuxep9PQ5B4Tko+exzVuQWhPIhknCIIgPNLUShVgh5nreK4lNz8X2d2yCsAOC29HCn9pkMFwdqELDZIPraKiMmM9ORmQgxyj3gvpNcEbu2HTKfh1rt7V4R6akhzKorZwE7gps0X61mu49XXCaUoA5xecaEWHNVVaXTByBHQuoeGUPnRpareHrSCVkjWp2rmTLN0xXzSDHt39sJ92gqtr2lIJ+ChQIA/yREopJcVGmFYv4lBVVkDBT9u4GdXarKojJnKgUo6xAZRrAM133PjWG7OpvnS2MgcquHV2W+0eTiMGYQaUZUaz9f21ZP1Ws0pfJJNjQuuvBnzfIvAb4oBRhZL8UhOsqhdxqLx9nTM7V3FoaxPz2OVtIWX5Fu28c9bhBHy4gEBHf0a/PoYNy3/Qv88DVYj6d8BKu3ppYXPJrt9VVAEmrr5I+Y7661V6IOsmB1SUtnWZQs1ZSk+d5dopuGbgjSxkPn28XXAPnkTirm0t7/8g/XyCgp9PUAAwZCw9ZgZhPngi5v2XUHSupZ31KUWjBjorkIBOZakEYz/3JueLe7jUVB3aT/6h/eQjwfD5cJzDvLAaPomizeuaXIX1sfHUMGy7g/pOAZWmltpFHKrUlGYnkblpG6WtvQVZWWh/XtXV6GoA1WoyDrrSJcQFhZUxUEReYs1n358BQ7SJuOKzW9j6SZR2rkh4IH8oKC68DShwGPAWfNPSHAkPm3Yhh2GeA/EYFkpsvAN9PU0aLNwAEEV23gLocp2jfw+oN7/coy77Ri6gIOtAGF9+1J7VzILw+BCrqQqCIAiPNE1qCsUakHpPwT0kAqm8egkBYxekg9fjrLOa6p1LV6gErJ6NpKvnkxgYAJgj8VyG+wRvpFSQc7a1D6uB2Ez9Goch4zGpiQEVlVkJFCoBY2O98/toE4Ry7IfNxcS0beuc1npqEj02vIJ5iDudakYclSgpO51OKWBorO+RteYh14uuMz3ppHc+tCxKb5UCtti/MRZjS8DSHtn8BfQOcaLZhfZk41iy/SAH9/2HBUNbnmzN99WN7Dl4kD1rpqFnfUmtybNw+ygc+bO2dfGWZaNKyaEKMDT9U+N9iku1D/A9n8J2QotTnD8C/oyZi4SqG/FcW7ua5Hfmc3bibM5PXtKGRBxAAqp8wNgDx5BJSIwBzJEoqBtSXZnN7Yy67JJMqk2QleWlkX/jItAH+chIRnwxoo2JOGBoIB4WoDq/g63L5/Hx1ACWBvXkvecDOLRVT1JtxgFmf7GVASODqf3YlKaRcj6XSsBIaqP3MLKhC/jPvnt/H7bsMMqMCjCww3Xaeqxca+4rcgysJmE77YO6VUyLYyjMB+Te9A6fW3evMh2O2QvLcLUH8pMobO1CLt0W4Tp9tTaGmvmqNNcoTb5GCWCk9/6i4m4FYOaFw5Dh1bG3nXzFchzmB2HaW2cOr/Qkim+pAQmG+rIm9/TZTKIkFzD1wuFdPwxlQHdPFB8sp7ePovkHlydmsvG7gxz8bi3Terd0BjLGLd3JwYMH+c/C4eh/p7hj+ckCus70wdil5p6qpupcErfvABL9c7pVlWmH6VoM+TuyAR2TPrwfxn59kKEkf98XpH2wgqSpszn7wpv89voW7VyArZWbhqoCsPKlR817z8ARQyOoqCl7VF7jTu0oWFfk1Zer6MZFimsWbZnwGeOmDWpzxW5ZXBraj2cE0z+MxL5X9RBJ60DsXz/G5Hf1rKb6MO3dwZk8sPIeg90EfzykDRZuqJaSfB1wYOgHB+rfDx91hy6SBdgHr2HcjFnIHfWthKuPB9PW7OHgwYPsbO77gSD8AYjKOEEQBOHRlr+e9F+88fI3x2LgeCwGjq+3+c4pnf9c+JxU70g8nc3pMWERPRp0VZ66jxsXWj+Oq5PCju5BEXQPavylXZ16Vu88NHeSr6D29EDiOJwB84bXbWjT6oYSjK096THFkx5TGkVC/rlf9OzzC7fTx2LjLsE88BXM63KYlCSu43KkNvFTdihRu8hA9yA8PwuqbaMpSKfA2KnhbEN1wgLxVQCY82TIeDja3KTMzxAS4IAxgFsg457YxAp9K6oaSJA5+uA6wwdmNNyopCheT7LqXDxFeQEorBV0DZ1H19C6Tfe2uqE+1SvRNnjV/rVPsX+trX3foUoNht2D8FwU1GCbmrK8y9z8+guUp+73ofgshXFXUI91obP3FAZ513+jaDSAkSPuU5eRtGER5RpIO59GZS9XzAbNYt7eWa05maYVKikD7AZFMHtQg21V5eRnxnH0o5e4XDO60dAEMyd/Rr3pz6g3G3amJOV4VMMXAXAd4IK5IYA5T4a9itfRlSS1KXAVd6L3kd1zPHYKF1zDFjXYfoW6AZkJ5O5NwHqqL517DsfrjeH1m2qKSN+7mtanN4wxsfPQEwNABdnnDut5fR+FaZPo6mmMVdBcrILm1m65cyqSi9FNr6zbfCgKLH3GYukzttEmTXEiyp/07HNPn00lt39ORR3qjqzvJPp9PanuDK+kU+ri1GSF7jPBgThIAVwIfN6XTe83N4/eJAJ9tCk48ydCGM9h9N2xOilssQ0Mxzaw8Tb1lSS9VXFVJ5NRDglAYeaF2z+9dLakkzZxdesWfpgyF++QhilxHzx31izr3Pq+q34vRYMtXcPm0bXBNo26gKLEI9z8OL75BXz02kZ24mhs/c0bvfdAew8yUHjjGRZB0v9FUckWzv/2Fn5+CpxGRvLPkfrnGWu1+MXs/Xk3Lw+xxm5QKC8PCq23uTi+if3uxcxjLJ7g2uBFf6bH1Ez4mca+oGc5U2/7DuLjZxEw2o2hIxSYquov3FCj7JMtnPBbQIB1H0a9+Vnj+2GjFVIfXtx2K84x3a/BIhquoSyOCW0cS/ocDv7oz/Snrekb+hZ9Q99qcBwlCe/359DRBi/jhUcP7V8bZG4hTJu0iTfbueBXENqLqIwTBEEQHnEqyo9F8Ou3J8nNr6Cy+i/qmkoVxRf2kRaj+zCZgvL/5nP+50yUZdTOOVSpyuZGdCRntke1uAhE02LJ+fY70q8WUa7TiVqp7fv09ij9cxwlL+LcwRSKlRUPbg6kn3ZybW8iBcXqugekKjWleclcXbOQrG/0TTCtpuS9dVy9lENpc9mAxJ1cjYqnqES7cqGmqpSixG1cfPNAg2F3DRw5SZISqCri5P7mhxPDcWITs6kAKi7HsltfIg5g11YuxSajvFO3iqKmSo0qM57fliwhX98DP1kUfbKN65kFVNz/02MHiCf3xyyq0J5bRb2fjQRTa0+c355LF8f771lz7lWStms/N7XXr6KI3FPbOPPeXFIzKjCw0C7oYASUbZjDtug08nWmPFNlXyR27SpOtHVo5ekVHD1d/b6sKKdM92djaIKVUyCTPthdV4G3ZS3fRF8k+7ZOurqqnPz0WHa+MZKjjR7gtJLW7yCh5u1v5YCX/mb3RxVFxqeRXLqQTYnOtVHnZ3L126j6KylnLeLi5/u4ka1CXXfRUV49yfl1EdVzZ7XSzY9J25tQ7z6IpoKS7BQufT6FjHP6JhdUcWd349jbSrX5C641uJdUlRVQEL+Ni69v07NQCdzzZ3PXRi59n4yqum+NuoDcI+tIfudis4nM4ycSyC4FSq8Q+31LC1oc5uQ5bSqt6L/70X/HSiX/yz1kNYhXfSeHnCPruPhOjP55BBN3cu2b+Pr350dY1Zf7yanOKqrL6sdsILHE0m8Sbota90kqPxbBmYMpFKsa/D6OWc9vq5rqAAAa4ElEQVSv763mWjFInMfTK1ibuM5+fxG7T+ehqgmiqpz89Dj2Ld9CSpvfv9fJWjyOTzfFkl5YXvddoEpJ9vkf+PYT/Qn+h6lsUywpFdY4OZmQf3pHo3kztaKI/fscdv6YRn6zv4QfPdlL9FzvFm1nU/T16nuIMXY9fR9WeILQ4To5Ojq2OB+ts7MzRUVFFBUVtUdMD4yIu/09rrGLuNuXiLv9Pc6xC8If2lOTcHvND9PMIyQv3l9/VcXuPtgsC6db57ZU3j0aTGccY3aoK2WnV7Hh7forHxoNXsOkpWNwMm6qUuL+DF+6kzk+Mig6yYoXV3Cybd0Jwh+YAvkH7+LqUsrNqBXkHtHN9kiRzHiN3s/aY3gnkeSXtzSRZBWEB0w2k407Q3AArux6jte+7OiABOHhEJVxgiAIgiAIHUQ7XxNgLEXioDP8x9ISYz9P5KYASsoeo4m79fEYVL1CoqENVjVzNQE4BmPn3wdrY4BcstsyVEzmwJOTlhDaXzv8MDvpiEjECUKztHNWAhgqHOrmIEVCp97uSF0tMQQ0BdkiESe0C3O34cx8LxAHgIoUTu7o6IgE4eERc8YJgiAIgiB0kIor2ah9FEjsAui9LEBvm9JLhynQOyT38XE9Mw9crTHzDmf6v8P1tCgn++gOzrR2FGfQEna+5Vs7EX9FznF2rG9pqKIg/K9LpiQvBCtrBbahs7AN1dNEncP1fUfaPTLhf8+0dQcZ51zzvxJSvtvE9sd+uWJBaJpIxgmCIAiCIHSUXRu5VDISm1E+mFsoMDasfr1KTWlhOvlHd1LwfU6Hhvgg5C+fyud5Cxg6dBAOXUwwqj3PcvJvXCRhyyISYi62+TgVymyunNjC8vXHEYPyBaElWRQtWod62kjs+trzJ1NJ7bCpqrIClKmnubVhPxUFHRqk8L+kqoKirAT2/fsTtp8TmTjhj00k4wRBEARBEDqMmqpDe7h1aA+3OjqUh+oi2RvD+GbjQ+o+5l0mxjykvgXhj6wgFVVkKmkdHYfwP2/TrOfY1NFBCEI7EnPGCYIgCIIgCIIgCIIgCEI7Eck4QRAEQRAEQRAEQRAEQWgn95yMMzU1fZhxPDQi7vb3uMYu4m5fIu729zjHLgiCIAiCIAiC8Edxz8m4srKyhxnHQyPibn+Pa+wi7vYl4m5/j3PsgiAIgiAIgiAIfxRimKogCIIgCIIgCIIgCIIgtBORjBMEQRAEQRAEQRAEQRCEdiKScYIgCIIgCIIgCIIgCILQTkQyThAEQRAEQRAEQRAEQRDaiUjGCYIgCIIg3CvHILp98yne29/FKlDS0dEIDTlFMulABouPJjA02KGjo/lD84hYy3/+PYcnZR0diSAIgiA8fkQyThAEQRCEezAM+52f4v1lOMYdHUpHCvTCxhQwtMR8sFNHR3MP5Bj1XobrG9EMXhzNnxdG4zV1GTJ5R8fVPLsV51gcc44RQ+9zxxGDcJMChtZ4BAQ/jNAEAGQ4msuQ9RjO25HT8OjocARBEAThMSOScYIgCILwEEmDvqbfO9uw7dbRkXhhuWE5fT77gyfT+gfRLeoj+n0w7OH0H5tEbhlQVUDRqfSHc4wHyXMZXn/1xUpe/aXPAKSOvvT523z+kHV9h05zuRSoyiPlRHQ7HzySyTEZLI7JYPHXazBtsLXVCcZHUgmHV77Gv/9bhLHzOBa+OxxRICcIgiAI904k4wRBEAThIZJ0s0Nm/CikPWyRWiuQ/KEzcYCZPTIzCYaGD6n/zBhuTp7N2ReWkB+rfkgHeXAU/T2QUEH+8Uh+WRrML5/uI7sMDGy8sbDp6OgegvT5bBvZk6VDfTkafb3j4nAMZujojjt8+yjh8JJPOJ4D5k9MY15QR8cjCIIgCI8PkYwTBEEQBEH4ozICuE7uT7Ha/xevp/AmQDlVFR0X1h/a7TzyK0zoN2xpR0fSDhJY+U0CJcjwDZsjhqsKgiAIwj0y6ugABEEQBOGemE3CJmQ03R3NMTECNBUo0w5zZfd6yuslFeQY9Z6LY5AvVlbGGACaChWFZ78j48g2KjV1LU2CdzFgcA7Jy6OoGjYT14GOSI1AU6mi8JfNpMXsaxSGkeNcugY/ia2NHCOD6r4v7OPawc2oNbr96k7KJcdpWjT1ZhgrTuDMp4sob/UFscR05kS6DXZDLpNgAKjvZJF3bCe5W2uGT7pj9eUs7Dvr7NbZB8+dPvV6Kklcx+XIVJ1XpBhHTMHezw15Z23fmqoWqsBk41jyxTR8ZUWc/HQ6K46WNNvc99WNLBjpAJd38485m0hpsl8n5LPGYuflhFwCoKaiOJ1bO7dRdKSgutEw7HeGYKW7X88QvHeG1Osqf/9ssjZX/+epcNxe84HEdVzeBIq3J+HQ0xKJIVQVp3ItaiPKU3XnbDx/OZ4+Cp3elGStXUj+T41D1rYtIG3qVqpmTaHHAHtMDUFTVcrtU1u59nFS452GhNBtSiCWZhL0FfXVi/0+qItVgANWPh4oE1PAfhkOPUGTlURxsZ4dvN8i4KVQfHtZI6+uoqy8ncelH9ey95MtVOo0tVtxjul+kPB+f45WrWHizGDcLEwAKP7tB7a+PYd8VcMD9MHu9ZWMftoVuy7atpWq65zZvopDW3/QE1Af7F5fw19HumJmCFQpST+6lm9WRtVrpY2l/s8n4f3+HDraoLuXDvDPyX0wyvyBlVPnUNZgs9W7Ccx82pr8H+ezYcmO2teNgtYwelogve0U2i/PFUouR69iZ4NronWZM+cVDB00gkC/xcTG6zkt3fObsYChQwfhYGGi7buqnPzMOGLXLiblbHV139CtzP6HP0W7XuJMrzWM66eA0jT2vf0SeS/sJnyINUal14n9JIATuufsvYDA10Lxc1RgVH39sk7tYPf7Kyhu9LNppZhNxIb6EuIwhPCRa/jHgQfUryAIgiD8gYnKOEEQBOHRZ7+MPrOm4OxcnYgDMDBG4T4K16BAnYZyTIKjGPjXJ7GpTsRpm8qxGjyFgTOXYdLoN58DPWYvpd9gbSIOwMBIjtWQCHoOdKzf1HM1XlOH091Om4ir7XvgJLp7P9AzboEE2Yp/0jvQE0V1Ig5A0tmebs+PpW1z81si/+Bf9B7miaJzXd8GhpLmvzSEBeKrAAzNeTJkfAvHeIaQAAeMAWO3QMY90VQ7e8w/nIurT00iDkCCsZk7PV4Y+WDmvjP9M/afzMLZRZuIAzA0c8f59RnI2jQJlj3d18+jl482EQdgYCjF3C8c+ymK+k0Dw3GbMwybJhJxbVF6/CT5GmNsghfj/MI2Bkz1RVZ4lovfrtaTRIpgxLuzCOxXl4gDMOpiTd/RSwl/M7DRHgDSZ47xxsIxtYk4ALNeY3j5gwUNWgYy4PPdTB/dpzYRB2Akd8B32msMaNSzCW7TdjN9dHUiDsBQgVPwW0yc3MqVUr86xHkV4DiQAY3W3wiln6c1cJ0zW+oScaaTDzB74Rj61iTiAIwVuI1eyhv/jmw0NxxA+u448rFmwLhZzcczcw3TQ/1xqknEARiaYOUUyMSla3Bq8GE2H7KS0f2q3z9SV/zmbSVsiLV2X6kDAWN0rvnQz5j+QQQBTtWJOABDBfZ+Ecz+eit2zUd2H66zOfEKIMPV55kH1qsgCIIg/JGJyjhBEATh0WYwiR5hvnQ2gJLUw1w98jUlhUVg+iQynzBsdTMy3ebjOtgcA00R13ev49alk2g05hg4TsX5heFYWfjSw9+b1J/P6uxkjEwB5RmHSf42ivIKC6TPfYzXQDk27sPJ+LWuAqdm/q0be+Zy/dwV7Yvy4SiemURnncxGefQEfqmeO17xt2g8nVWkb5pAzs0HdVECMHeXQFkyaf/ajOpKKSCl07N+WI9x12mXSv7Ls8kHaqvH7iSS/PIWmhyhGDoJJxcplGVxbfMXFB0rACR06j0Sx2VBmDe135GTJP3FBS9ZESf3f9dC/MeJTQzHK8gOLsey+79NNPMLwMoayD7BxQ/2oL6hBpkCSWAQ1oFS3YOTNfEIWVBb8SbL2M/Zt4+0EAfI+vogq1KSe2Qrt7Ymc9fUC5sP/k43Mye6jICSXdp2FZELqXnXaCvfWupZglQGFZkxpH18gIpiKaZvzKN3fwUWHj5kEVPdTkGXMT7IUHM7cQ9Zm06gLpDS6dnhOL4chDnppL2zGlVmi6ei3++x5F8NxMrVHBt3KPwpktTjsU02r1TlcSF+B3E/HCL7t4sg98d+ZiRhwQ7YDwrHjFjqF9Qp6OungNtpHNq4mIToOIxGb2Xm6/6YufrjAbVVj1YLVzLK1QQq8jjz/ecc/U8UZao+yEeGE/iCG41rL00ws4ayzGi2Ll5BVqEDTu9+xuRBCjz8Z8E382tbZi/oT82g0JqKPf3WEX96CgOedsBjnD/xH8XVbRo6hn7WUJkcS3xNcal8AaNe7IMcJSk71rLvP1GUqRwwDZ7FqGmhePQay9DR89m3t8Fh4qOITwtkVL+xDHBax5lm1vooTo/jxO4tpPwYTZkKjAYvZcS8cAZYDMTneUj/pq6tmZ01qrNRfHqkD7Pn+WPl6EBZ2g4+/qQLYeuCsbPrgxWQTyiBLwVjZ1xOVkwUuzeuojgPjAa/RcDMCAIc/XnudX++/CSuybjuR8mRNLKfd8HOwQsHjtOBs/UJgiAIwmNBVMYJgiAIjzbvIdiaQmXGPlK2r9Ym4gDKTlLy86tcjalLLEh9vOgM5Mcs5UbySTQagCI0matJ23WWUsDCPbDRL7+S5G2c37Ka8jIVaDIp/TmBYsCgwZ+s1CoVYIyZZzAmNUlA1WGU+6dy49xDOPcmFVBRApg6YRZUUyFUyt1jMeS+9hmtH30mQe7jjiGlZH+zsjoRB6Dm7qXfqWpu12vb+ccLz/HcqBdbHKIKcHzVy4x97jnGNjdE9cYdbdLQ0p0ugy20r5UoUe/fw803tzWdULwfJamkLV/Czahk7pYABUkUpSoBCQZtXB6yNHUnv725h4obaihRUvZDEkrAwFD3jWWHRAFUpZMbeQJ1AWh/lnvISSkFiSWmPVsZgMFwbF/5gN6uxpQUqtAAZn2DqqtDA7GdHc2fF6+nrk4viqOTfdm9cpU2EQegiiNrZRy3AKQmeqvAVMlb+HTysyREaxM7lXujSSkEjHXbR+A7yBpQkvDJOPZtjKJMBXAR1YH57Js8jgt6+i77bQcbpr5CVuZ1UMWRvv20NrnchhLC/CMXyAfsB0VgpvO63TN9MaOc88cX1734vD9uxpD/4wp21sZ8nbLo+ezc/itlmODkE67nKHGc2f8rKmNX/MJDmw5mw7N8+vcwzhyIru4bKk8tJuE3JQCmnRu0r0gjdu0KKqOvk4c2lhOfzEeVfJtSAMPqv7QPCsbDDiqTd/Dlcm0iTtv3KmKXxJIF2Pcac0/X655cy6GoApBb4PLgehUEQRCEPyxRGScIgiA80kxsbDEAcs+u1zOsrj6JwhjIpjhZT3rn6hVu441UboEEdOZqU5Ebt7l+38WFjeaSAig9GEW641yc3Ecx4J1RqPMzyT53mNxT36Fu18nwk8jdHI9ihh9Ww2Zh9Rc1quxkCo4dpmh/Vhv6dcLUEiCb31suKnv4MveTtd8NWYgT9mEL6BZaiirjIrmH96CKVT6YY+SlorpQvyZL/WFdFVzrKSk4fKJ+AvPcbT0JxN+pKgM6O2Hzhg8ZmxO5WyClU8hYunpIASXqjNZFIH0uAierCrL3zyfjV1D8LRJPZ1/6hkWQtBWkCqC4sP68hUOWMuKlsfRzVNQOr21JXvLiBvOPbeHohC3Un67NFasuQOEFEu55lVMl53fPr59cPp3LHag/P+D9io/iTGYgQx37MmAQxJ4GmIVvPwWofuXCrrqmVm4OGAFWT0eyOCZSb3em1n30H2fvWuInfsVQv3A85Dso0tsoEPt5b/Gcn2u9obtNyjxdv8ouLY74ZD3tfBy018gznMUx+pKFgLVDdRXdg5CNSt9NUxAEQRAEvURlnCAIgvAYqOBuS5k4HZqH9VCoOUzOhgkkbtlHemo2lWaOOARFMGjeXnoObOd1BGO3kfb3FVw6kkhuYSXS7l70mDKP/t/MRe7e8u7NUqu5+0CCbLuqzatJfmUdl39O4vYdI+QuPrjOXE7/zyZh3MbKtUdDFkV7kihFQhe/cLw++xTvnZF4TfGjiwRKEr/ndquGqA7HzFUOyiRu/ZoCpKDcupnrKpA4j6fXK0HYGICmMLMuGTd0K7OXhuPrdO+JuPtWUd5iUv3hiyP+x4tUYo1HSHXV2ugg3OSQf3oHurkuozZdh1jiYy5SadwHv2n+erb70/ffn/FycJ97S8Tdj4f182uSBcaSllsJgiAIgqAlKuMEQRCER5paqQLsMHMdz7Xk5uciu1tWAdhh4e1I4S8NMhjOLnShQfKhVVRUZqwnJwNykGPUeyG9JnhjN2w6Bb/O5U6b+r5PJTmURW3hJnBTZov0rddw6+uE05QAzi840YoOa6q0umDkCOhcQsMpfejyYKK+fwWplKxJpQTA0h3zRTPo0d0P+2knuLqmLZWAjwIF8iBPpJRSUmyEafUiDlVlBRT8tI2bUakt9qCfIyZyoFKOsQGUawDNd9z41huzqb50tjIHKrh1dlvtHk4jBmFG9Rxt768lq2aoKpFMjgml0XoH9yWP4lLAzhUPT/RXc7Wnrw5x/vk+DPAMxooddH6mD3KuE6+zcANA9o1cQEHWgTC+/KgV86t9tYczo/vg6xeBVVqDbU7hDO5lAig589UKjn6/o3aoauPVYe/T5VyKccX07DpWvrGq9f3cqx4O2EqB3BwSHv7RBEEQBOGxJyrjBEEQhEeaJjWFYg1IvafgHhKBVF69hICxC9LB63HWWU31zqUrVAJWz0bS1fNJDAwAzJF4LsN9gjdSKsjRST7cn0Bspn6Nw5DxmNTEgIrKrAQKlYCxMZ307KVNEMqxHzYXE9O2rXNa66lJ9NjwCuYh7nSyrH6tREnZ6XRKAUNjqZ6dStGogc5edJ3pSSe9VWVZlN4qBWyxf2MsxpaApT2y+QvoHeJEs4UvsnEs2X6Qg/v+w4KhLZes+b66kT0HD7JnzTSarCmcPAu3j8KRP2tbF29ZNqqUHKoAQ9M/Nd6nuFQ7NLTnU9hOsG8xjo73Z8xcJFTdiOfa2tUkvzOfsxNnc37ykjYk4gASUOUDxh44hkxCYgxgjkRB3ZDqymxuZ9QNApVJtdVZZXlp5N+4CPRBPjKSEV+MaGMiDmAHaenlgANDPzhGwIRQtB8HB0yHLGXEN7vp2+Zj3I91xJ/OA+tB+A59i769TOov3FDj0EXt/GrBaxg3YxZyx/tdxTWK2B+vg7U/g7s32OSo0K58XHGb/N8uaBNxjqG4zTvAOO82JOIAjsaRrgJT7wgmL3wLu15NDKV9QGRPOWIBlGQn0/KMkYIgCIIgiMo4QRAE4dGWv570X7zx8jfHYuB4LAaOr7f5zimd/1z4nFTvSDydzekxYRE9GnRVnrqPGxdav7xBJ4Ud3YMi6B4U0WibOvWs3oUT7iRfQe3pgcRxOAPmDa/bUJzAmU8XtbJKT4KxtSc9pnjSY0qjSMg/94uefX7hdvpYbNwlmAe+gnldDpOSxHVcjtQmfsoOJaLsH4CiexCenwXVttEUpFNg7IRlw25rhAXiqwAw58mQ8XB0SzPxP0NIgAPGAG6BjHtiEyv0rahqIEHm6IPrDB+Y0XCjkqJ4Pcmqc/EU5QWgsFbQNXQeXXXmzs/fP5uszc2E1aTqlWgbvGr/2qfYv9bWvu9QpQbD7kF4LgpqsE1NWd5lbn79BcpTjdcabd5ZCuOuoB7rQmfvKQzyrv9G0WgAI0fcpy4jacMiyjWQdj6Nyl6umA2axby9s1pzMs24TsqGPVz+MBQ3uSuBMyMJnKk7B1sa2a3uW3/lnu8/MvD9h/bf6bt68s2G+tvzt8SR9fQYnF4Yg1xazvkji2kkfQ4Hf/Rn+tPW9A19i76hbzVooCTh/f4cOtp41xplm37gTNAsBjhqq+Bq/RjL5dv++HZxYOgHBxh6j2d7b9Zx9MBYPEJdcQqaxfSgxj9PfdekdWSMH+CCMUUkRB9/EB0KgiAIwh+eqIwTBEEQHnEqyo9F8Ou3J8nNr6BSo31VU6mi+MI+0nRWU4UUlP83n/M/Z6Isg+qmVKqyuREdyZntUW2YryqWnG+/I/1qEeU6naiV2r5Pb4+qPV49yYs4dzCFYmWF/u2t8dNOru1NpKBYXbdAQJWa0rxkrq5ZSNY3+hY3UFPy3jquXsqhtLm8TuJOrkbFU1SiRgNoqkopStzGxTcPaFdrbMqRkyQpgaoiTu5vfjgxHCc2MZsKoOJyLLv1JeIAdm3lUmwyyjvq2munqVKjyozntyVLyP9J305ZFH2yjeuZBVQ0u/zroyKe3B+zqEJ7bhX1fjYSTK09cX57Ll0c779nzblXSdqu/dzUXr+KInJPbePMe3NJzajAwEK7oIMRULZhDtui08jXWWVClX2R2LWrONH6TFmd5Plsm7qYQ+fzUOkco7IwjROb1nLmARzivqSv4lQyWDk5YJoXR/xe/c2yl4zj002xpBe2cr471SptFV4jURxasoUz2cq6fiuUpMfv4POtF9s8t17Zxmf5ePkPXMhWUvkwPwtB8xjV2xiun2RLU59lQRAEQRDq6eTo6NjiHM3Ozs4UFRVRVKR/HahHlYi7/T2usYu425eIu/09zrELwh/aU5Nwe80P08wjJC/eT5XuGL/uPtgsC6db57ZU3gnCw+TLvK+W8IxtESdXvciKmI6ORxAEQRAeD6IyThAEQRAEoYMY+/VBBmAsReKgM0+YpSXGfp7ITQGUlDWcy0wQOpyM4e++zjO2UBQXJRJxgiAIgnAfxJxxgiAIgiAIHaTiSjZqHwUSuwB6LwvQ26b00mEK9A7JFYSOIuPJ2R/z/54wp+LqbpYvF3PFCYIgCML9EMk4QRAEQRCEjrJrI5dKRmIzygdzCwXGhtWvV6kpLUwn/+hOCr7P6dAQBaGxEgpLK1Bf3c/y+ZtI6ehwBEEQBOExI5JxgiAIgiAIHUZN1aE93Dq0h1sdHYog3IeUqNeY2NFBCIIgCMJjSswZJwiCIAiCIAiCIAiCIAjtRCTjBEEQBEEQBEEQBEEQBKGdiGScIAiCIAiCIAiCIAiCILSTTo6Ojnc7OghBEARBEARBEARBEARB+F/w/wGboRlDFOlKiQAAAABJRU5ErkJggg==;" vertex="1" parent="1">
          <mxGeometry x="43" y="20" width="741" height="53.31" as="geometry" />
        </mxCell>
      </root>
    </mxGraphModel>
  </diagram>
</mxfile>
